<!-- Generated by IcoMoon.io -->
<svg version="1.1" xmlns="http://www.w3.org/2000/svg" width="45" height="32" viewBox="0 0 45 32">
<title>book-cog</title>
<path d="M2.141 1.439c-1.163-0.007-2.111 0.84-2.111 1.9v21.221c0 1.003 0.864 1.84 1.977 1.894 3.313 0.163 10.012 0.759 14.649 2.952 0.69 0.326 1.504-0.117 1.504-0.817v-22.871c0-0.322-0.169-0.616-0.47-0.789-4.486-2.579-11.771-3.291-15.435-3.487-0.038-0.002-0.076-0.003-0.113-0.003zM36.386 1.439c-0.038 0-0.075 0.001-0.113 0.003-3.664 0.195-10.949 0.908-15.436 3.487-0.3 0.173-0.471 0.479-0.471 0.801v22.855c0 0.703 0.817 1.146 1.509 0.819 0.617-0.291 1.27-0.555 1.947-0.792-0.518-0.871-0.934-1.736-1.212-2.579-0.373-1.149 0.467-3.262 1.628-3.882-1.129-0.274-2.010-2.349-1.63-3.533 0.566-1.711 1.697-3.523 2.944-4.786 0.875-0.896 3.27-1.247 4.4-0.627-0.318-1.060 1.203-2.841 3.11-3.224l-0.003-0.007c0.238-0.051 1.323-0.166 2.258-0.168v0l3.179 0.34v-6.806c0.001-1.060-0.947-1.907-2.111-1.9zM35.318 12.681c-0.758 0.002-1.507 0.082-2.231 0.235h-0c-0.224 0.045-0.386 0.236-0.386 0.452v1.912l-0.002 0.001c-0.921 0.308-1.774 0.769-2.518 1.365l-0.002 0.002-1.764-0.956c-0.197-0.108-0.454-0.070-0.61 0.089-1.024 1.038-1.808 2.294-2.266 3.678-0.068 0.21 0.027 0.433 0.224 0.541l1.764 0.956-0 0.002c-0.177 0.903-0.177 1.826 0 2.729l0 0.002-1.764 0.956c-0.203 0.108-0.291 0.331-0.223 0.541 0.457 1.384 1.242 2.633 2.266 3.678 0.156 0.159 0.407 0.197 0.61 0.089l1.764-0.956 0.002 0.002c0.744 0.596 1.597 1.057 2.518 1.364l0.002 0.001v1.912c0 0.216 0.163 0.407 0.386 0.452 1.522 0.32 3.071 0.308 4.518 0 0.224-0.045 0.386-0.235 0.386-0.452v-1.912l0.003-0.001c0.921-0.308 1.774-0.769 2.518-1.364l0.002-0.002 1.764 0.956c0.197 0.108 0.454 0.070 0.61-0.089 1.024-1.038 1.808-2.294 2.266-3.678 0.068-0.21-0.027-0.433-0.224-0.541v0l-1.763-0.956 0-0.002c0.177-0.903 0.177-1.826 0-2.729l-0-0.002 1.763-0.956c0.203-0.108 0.291-0.331 0.224-0.541-0.457-1.384-1.242-2.64-2.266-3.678-0.156-0.159-0.407-0.197-0.61-0.089l-1.764 0.956-0.002-0.002c-0.744-0.596-1.597-1.057-2.518-1.365l-0.003-0.001v-1.912c0-0.216-0.163-0.408-0.386-0.452-0.761-0.16-1.529-0.237-2.287-0.235zM35.352 19.217c1.821 0 3.308 1.396 3.308 3.105s-1.48 3.105-3.308 3.105c-1.828 0-3.307-1.396-3.307-3.105s1.487-3.105 3.307-3.105z"></path>
</svg>
