<?xml version="1.0" encoding="UTF-8" standalone="no"?>
<svg
   xmlns:dc="http://purl.org/dc/elements/1.1/"
   xmlns:cc="http://creativecommons.org/ns#"
   xmlns:rdf="http://www.w3.org/1999/02/22-rdf-syntax-ns#"
   xmlns:svg="http://www.w3.org/2000/svg"
   xmlns="http://www.w3.org/2000/svg"
   xmlns:sodipodi="http://sodipodi.sourceforge.net/DTD/sodipodi-0.dtd"
   xmlns:inkscape="http://www.inkscape.org/namespaces/inkscape"
   aria-hidden="true"
   focusable="false"
   data-prefix="fas"
   data-icon="fish"
   class="svg-inline--fa fa-fish fa-w-18"
   role="img"
   viewBox="0 0 576 512"
   version="1.1"
   id="svg3740"
   sodipodi:docname="pork.svg"
   inkscape:version="0.92.4 (5da689c313, 2019-01-14)">
  <metadata
     id="metadata3746">
    <rdf:RDF>
      <cc:Work
         rdf:about="">
        <dc:format>image/svg+xml</dc:format>
        <dc:type
           rdf:resource="http://purl.org/dc/dcmitype/StillImage" />
        <dc:title></dc:title>
      </cc:Work>
    </rdf:RDF>
  </metadata>
  <defs
     id="defs3744" />
  <sodipodi:namedview
     pagecolor="#ffffff"
     bordercolor="#666666"
     borderopacity="1"
     objecttolerance="10"
     gridtolerance="10"
     guidetolerance="10"
     inkscape:pageopacity="0"
     inkscape:pageshadow="2"
     inkscape:window-width="1238"
     inkscape:window-height="1144"
     id="namedview3742"
     showgrid="false"
     inkscape:zoom="0.99"
     inkscape:cx="288"
     inkscape:cy="230.92644"
     inkscape:window-x="115"
     inkscape:window-y="152"
     inkscape:window-maximized="0"
     inkscape:current-layer="svg3740" />
  <path
     style="fill:#000000;stroke-width:1.75102544"
     d="m 408.96981,5.5005178 c -0.40743,0.01918 -0.81759,0.05847 -1.22944,0.118876 -23.37012,13.4835882 -59.26183,28.2901322 -112.6457,79.8415162 21.31803,27.38625 27.50181,34.33026 43.17195,51.72033 19.88277,-15.36106 47.32476,-68.141917 94.28785,-99.358483 C 431.98503,23.735213 421.60023,4.9060878 408.96981,5.5005178 Z M 285.70937,91.58537 c -20.25342,3.4369 -165.41568,91.35705 -150.33699,208.89035 25.18946,196.34342 111.00774,202.98936 170.01258,202.98936 59.00483,0 88.31974,-19.09042 97.74442,-76.85299 1.60512,-9.76874 2.33246,-19.02151 2.30881,-27.81211 C 405.12558,282.56882 308.60239,226.3223 333.51879,148.59805 313.49204,123.66322 311.37044,119.39363 285.70937,91.58537 Z M 183.43783,341.71361 c 31.57634,0.91092 27.0281,42.41711 53.65206,70.0866 29.07834,25.39681 75.86598,30.7784 65.06804,59.01929 -7.12387,18.63173 -40.25382,6.06956 -55.93437,-4.91907 -36.68068,-25.70511 -67.38918,-62.08539 -62.78573,-124.18682 z"
     id="path29"
     inkscape:connector-curvature="0" />
</svg>
