<?xml version="1.0" encoding="UTF-8" standalone="no"?>
<!-- Generated by IcoMoon.io -->

<svg
   xmlns:dc="http://purl.org/dc/elements/1.1/"
   xmlns:cc="http://creativecommons.org/ns#"
   xmlns:rdf="http://www.w3.org/1999/02/22-rdf-syntax-ns#"
   xmlns:svg="http://www.w3.org/2000/svg"
   xmlns="http://www.w3.org/2000/svg"
   xmlns:sodipodi="http://sodipodi.sourceforge.net/DTD/sodipodi-0.dtd"
   xmlns:inkscape="http://www.inkscape.org/namespaces/inkscape"
   version="1.1"
   width="36"
   height="32"
   viewBox="0 0 36 32"
   id="svg123"
   sodipodi:docname="ham.svg"
   inkscape:version="0.92.4 (5da689c313, 2019-01-14)">
  <metadata
     id="metadata129">
    <rdf:RDF>
      <cc:Work
         rdf:about="">
        <dc:format>image/svg+xml</dc:format>
        <dc:type
           rdf:resource="http://purl.org/dc/dcmitype/StillImage" />
      </cc:Work>
    </rdf:RDF>
  </metadata>
  <defs
     id="defs127" />
  <sodipodi:namedview
     pagecolor="#ffffff"
     bordercolor="#666666"
     borderopacity="1"
     objecttolerance="10"
     gridtolerance="10"
     guidetolerance="10"
     inkscape:pageopacity="0"
     inkscape:pageshadow="2"
     inkscape:window-width="996"
     inkscape:window-height="914"
     id="namedview125"
     showgrid="false"
     inkscape:zoom="6.43"
     inkscape:cx="18"
     inkscape:cy="19.211906"
     inkscape:window-x="1005"
     inkscape:window-y="427"
     inkscape:window-maximized="0"
     inkscape:current-layer="svg123" />
  <title
     id="title119">pork1</title>
  <path
     d="m 27.582031,1.0546875 c -0.930899,0.5835641 -1.19655,1.7857959 -0.878906,3.6855469 0,0 -2.643734,2.5811094 -3.552734,2.9121094 -2.866,-0.646 -5.158297,-0.5067032 -7.904297,0.5292968 -2.807,1.059 -7.5417093,3.9030814 -8.6304182,5.4942224 2.622571,-1.23239 7.9024242,-0.469983 10.1167462,1.976481 2.167314,2.394528 3.437291,4.328799 2.52539,9.751018 2.568981,-1.575903 4.411141,-3.838174 5.619141,-6.036174 2.883,-5.246001 1.470703,-8.173829 1.470703,-8.173829 l 3.404297,-3.1679684 c 0,0 3.731563,0.9058636 4.476563,-0.9491364 1.45,-3.6080001 -3.121094,-3.2832855 -3.121094,-3.2832854 C 31.710491,1.312517 30.283865,-0.63904356 27.582031,1.0546875 Z M 9.9199219,14.671875 c -4.4447981,0.04031 -8.0156718,3.516139 -7.9785157,7.763672 0.038085,4.247533 3.6704359,7.659449 8.1152348,7.619141 h 0.002 c 4.444798,-0.04031 8.0166,-3.516138 7.978515,-7.763672 -0.03807,-4.247533 -3.672389,-7.65945 -8.1171871,-7.619141 z m 0.9921871,4.429687 h 0.002 c 1.104465,-0.0094 2.004383,0.809131 2.013672,1.828126 v 0.002 c 0.0084,1.018996 -0.878886,1.853907 -1.982422,1.863281 h -0.002 c -1.1044646,0.0094 -2.0043825,-0.80913 -2.0136715,-1.828125 v -0.002 c -0.00836,-1.018996 0.8779574,-1.853907 1.9824215,-1.863282 z"
     id="path137"
     inkscape:connector-curvature="0"
     sodipodi:nodetypes="sccccsccccccscccccscccccccccc" />
</svg>
