<?xml version="1.0" encoding="UTF-8" standalone="no"?>
<svg
   xmlns:dc="http://purl.org/dc/elements/1.1/"
   xmlns:cc="http://creativecommons.org/ns#"
   xmlns:rdf="http://www.w3.org/1999/02/22-rdf-syntax-ns#"
   xmlns:svg="http://www.w3.org/2000/svg"
   xmlns="http://www.w3.org/2000/svg"
   xmlns:sodipodi="http://sodipodi.sourceforge.net/DTD/sodipodi-0.dtd"
   xmlns:inkscape="http://www.inkscape.org/namespaces/inkscape"
   aria-hidden="true"
   focusable="false"
   data-prefix="fas"
   data-icon="fish"
   class="svg-inline--fa fa-fish fa-w-18"
   role="img"
   viewBox="0 0 576 512"
   version="1.1"
   id="svg3740"
   sodipodi:docname="pasta.svg"
   inkscape:version="0.92.4 (5da689c313, 2019-01-14)">
  <metadata
     id="metadata3746">
    <rdf:RDF>
      <cc:Work
         rdf:about="">
        <dc:format>image/svg+xml</dc:format>
        <dc:type
           rdf:resource="http://purl.org/dc/dcmitype/StillImage" />
        <dc:title></dc:title>
      </cc:Work>
    </rdf:RDF>
  </metadata>
  <defs
     id="defs3744" />
  <sodipodi:namedview
     pagecolor="#ffffff"
     bordercolor="#666666"
     borderopacity="1"
     objecttolerance="10"
     gridtolerance="10"
     guidetolerance="10"
     inkscape:pageopacity="0"
     inkscape:pageshadow="2"
     inkscape:window-width="1238"
     inkscape:window-height="1144"
     id="namedview3742"
     showgrid="false"
     inkscape:zoom="0.66"
     inkscape:cx="288"
     inkscape:cy="250.21709"
     inkscape:window-x="115"
     inkscape:window-y="152"
     inkscape:window-maximized="0"
     inkscape:current-layer="svg3740" />
  <path
     inkscape:connector-curvature="0"
     style="fill:#000000;stroke:#293133;stroke-width:0.6008327"
     d="m 498.94835,3.4181961 c -16.46125,0.47045 -31.00627,21.5941699 -46.05989,27.6241799 -15.05429,6.03032 -30.61784,-3.0303 -46.04824,-9.20025 -15.43095,-6.16965 -30.72929,-9.43992 -46.0599,-9.21197 -15.33,0.22772 -30.6936,3.95378 -46.04824,9.21197 -15.3547,5.25849 -30.69059,12.03955 -46.04817,9.20025 -15.35735,-2.83929 -30.73776,-15.30068 -46.0599,-18.41222 -15.32207,-3.1118299 -30.58737,3.13707 -46.04824,9.21197 -15.46116,6.0752 -31.11802,11.96823 -46.05989,9.20025 -14.94217,-2.76803 -29.16971,-14.19785 -46.048182,-18.41222 -16.87817,-4.2142999 -36.40848,-1.20286 -46.05995,9.21197 -9.65148,10.41514 -9.42365,28.2285 -3.91948,42.99709 6.99688,14.50879 19.27213,25.9728 22.34347,39.899084 3.0711,13.92621 -3.06845,30.31531 -9.21203,46.04817 -6.14387,15.73281 -12.29448,30.79911 -9.21196,46.04818 3.08281,15.24937 15.40048,30.68296 18.42399,46.05996 3.02327,15.37699 -3.24684,30.69852 -9.21203,46.04817 -5.96525,15.34966 -11.62881,30.72815 -9.21196,46.05996 2.41684,15.33181 12.91501,30.61784 18.42399,46.04818 5.50873,15.43041 6.03038,31.00585 0,46.0599 -6.03032,15.05392 -18.6147,29.58722 -18.42399,46.04823 0.19106,16.4612 13.15847,34.84956 27.63596,36.84787 14.47718,1.99897 30.46293,-12.39037 46.048172,-18.42393 15.5853,-6.03356 30.77165,-3.71435 46.05996,0 15.28873,3.71374 30.67972,8.82563 46.04818,9.21196 15.36816,0.38694 30.71463,-3.95107 46.05995,-9.21196 15.34467,-5.26149 30.69054,-11.44809 46.04818,-9.21197 15.35758,2.23594 30.72929,12.89627 46.0599,18.42393 15.3306,5.52827 30.62131,5.92602 46.04823,0 15.4268,-5.92541 30.98915,-18.17777 46.0599,-18.42393 15.07068,-0.24634 29.65019,11.51316 46.04818,18.42393 16.39792,6.91138 34.60417,8.97644 46.04824,0 11.44466,-8.97584 16.12274,-29.00063 9.21196,-46.05989 -6.91078,-17.05914 -25.40266,-31.15462 -27.62424,-46.04818 -2.222,-14.89344 11.82535,-30.58647 18.41228,-46.05995 6.58692,-15.47379 5.7049,-30.72929 0,-46.04818 -5.70491,-15.31914 -16.22435,-30.6909 -18.41228,-46.04818 -2.1886,-15.35759 3.96315,-30.70207 9.21202,-46.05996 5.24828,-15.35758 9.58359,-30.73049 9.20026,-46.04818 -0.38334,-15.31769 -5.48471,-30.58178 -9.20026,-46.05995 -3.71554,-15.47817 -6.03356,-31.17174 0,-46.048184 6.03417,-14.87679 20.41059,-28.93742 18.41222,-46.05995 C 533.78619,23.131756 515.40912,2.9476261 498.94835,3.4181961 Z m -48.9937,90.5473499 0.52813,326.773194 -326.78491,0.51612 -0.51612,-326.773204 z M 149.2332,123.66687 V 392.59814 H 418.16453 V 123.66687 Z"
     id="path66" />
</svg>
